<svg xmlns="http://www.w3.org/2000/svg" width="70" height="70"><g data-name="Grupo 21821"><path data-name="Trazado 23071" d="M5 0h60a5 5 0 015 5v60a5 5 0 01-5 5H5a5 5 0 01-5-5V5a5 5 0 015-5z" fill="#f3575d" opacity=".15"/><g data-name="Grupo 21820" fill="#2b3072"><path data-name="Trazado 90" d="M44.275 53.21h2.7l2.97-8.091-8.036-15.631V16h-18.91v30.966h5.356c-.015.421-.03.838-.061 1.244-.015.254-.025.508-.025.761a12.8 12.8 0 00.756 4.239h2.72l-.015-.036a10.439 10.439 0 01-.9-4.8c.03-.462.051-.929.066-1.411.02-.812.015-1.65-.015-2.538a57.932 57.932 0 00-.284-3.965l-.162-1.564a1.484 1.484 0 012.939-.406l1.025 5.919a.019.019 0 00.005.015 3.733 3.733 0 001.706 2.538 3.787 3.787 0 005.8-3.2v-8.725l5.268 10.254zm-4.9-9.442a1.209 1.209 0 01-.188.66 1.251 1.251 0 01-2.117 0 1.217 1.217 0 01-.168-.447l-1.025-5.919a4.022 4.022 0 00-7.985.685 3.684 3.684 0 00.02.406s.386 4.132.426 5.274h-2.8V18.538h13.833z"/><path data-name="Rectángulo 484" d="M33.723 20.079v2.538h-2.538v-2.538z"/><path data-name="Trazado 23072" d="M24.279 42.15v3.588s5.461.649 5.406 0 0-3.588 0-3.588z"/><path data-name="Trazado 23073" d="M36.049 42.15v3.588s4.205.649 4.163 0 0-3.588 0-3.588z"/></g></g></svg>