<svg xmlns="http://www.w3.org/2000/svg" width="70" height="70"><g data-name="Grupo 21823" transform="translate(-262 -1583)"><rect data-name="Rectángulo 669" width="70" height="70" rx="5" transform="translate(262 1583)" fill="#e8f5ff"/><path d="M310.333 1616.223c0 8.222-5.689 15.91-13.333 17.777-7.644-1.866-13.333-9.555-13.333-17.777v-8.888l13.333-5.926 13.333 5.926v8.889M297 1631.037c5.555-1.481 10.367-8.088 10.367-14.488v-7.288L297 1604.638l-10.37 4.623v7.288c0 6.4 4.815 13.007 10.37 14.488m4.148-14.814v-2.222c0-2.074-2.074-3.7-4.148-3.7s-4.148 1.63-4.148 3.7v2.222a1.912 1.912 0 00-1.778 1.778v5.185a1.94 1.94 0 001.778 1.923H301a1.94 1.94 0 001.926-1.778v-5.182a1.94 1.94 0 00-1.778-1.926m-1.926 0h-4.444v-2.222a2.036 2.036 0 012.222-1.926 2.036 2.036 0 012.222 1.926z" fill="#2b3072"/></g></svg>